<?xml version="1.0" encoding="UTF-8"?>
<svg version="1.1" xmlns="http://www.w3.org/2000/svg" width="512" height="512">
<path d="M0 0 C0.70761467 -0.00235223 1.41522933 -0.00470446 2.14428687 -0.00712797 C4.52144117 -0.01379839 6.89854057 -0.01336034 9.27570343 -0.01294994 C10.9949211 -0.01624979 12.71413799 -0.01997561 14.4333539 -0.02409142 C19.1628182 -0.03410585 23.8922698 -0.03782732 28.6217432 -0.04048073 C33.72079825 -0.04438545 38.81984327 -0.05396369 43.91889191 -0.0626936 C56.2358492 -0.0824535 68.55280731 -0.09252372 80.86977649 -0.10142139 C86.67094396 -0.10580515 92.47211053 -0.11117174 98.27327728 -0.11641026 C117.55931916 -0.13342223 136.84536047 -0.14791616 156.13140869 -0.155159 C161.13592784 -0.15706887 166.14044699 -0.15898921 171.14496613 -0.16094494 C173.01072527 -0.16167055 173.01072527 -0.16167055 174.91417652 -0.16241082 C195.0612677 -0.17071022 215.20829949 -0.19604579 235.35536474 -0.22852562 C256.04272402 -0.2616044 276.73005312 -0.27960851 297.41743898 -0.28280324 C309.03148106 -0.28496759 320.64543653 -0.29370541 332.25945282 -0.31926441 C342.15100865 -0.34098257 352.04245684 -0.3490163 361.93403381 -0.33929763 C366.97867702 -0.33475618 372.02309819 -0.3366303 377.06771088 -0.35605907 C381.69190818 -0.37371443 386.31572183 -0.37267375 390.93992335 -0.35716178 C392.60688982 -0.35478932 394.27388303 -0.3590904 395.94080871 -0.37099043 C414.43057671 -0.49474072 429.51688369 4.31961917 443.02973175 17.16547108 C454.90061188 29.64685362 458.35766955 44.19844967 458.28069305 60.91627979 C458.28487176 62.40057756 458.29035222 63.88487213 458.29701287 65.36916083 C458.31141599 69.42610025 458.30723889 73.48283563 458.29984605 77.53978598 C458.29510387 81.92369543 458.30763356 86.30756141 458.31786346 90.69145679 C458.33503676 99.27175817 458.33589445 107.85198627 458.33065056 116.43230037 C458.32660457 123.40897952 458.32805751 130.38563706 458.33339882 137.36231518 C458.33414724 138.35633693 458.33489566 139.35035868 458.33566676 140.3745023 C458.33719829 142.39405246 458.33873664 144.41360261 458.34028173 146.43315276 C458.35400168 165.36148828 458.34857283 184.28978245 458.33709652 203.21811702 C458.32716663 220.51963141 458.34010151 237.82103881 458.36403071 255.1225367 C458.38843727 272.9036723 458.39802563 290.68475812 458.39137799 308.46591014 C458.38788898 318.44225531 458.39009671 328.41851825 458.40762901 338.39485073 C458.42237053 346.88826809 458.42296106 355.38154531 458.4055581 363.87495998 C458.39706142 368.20472248 458.39486578 372.53423483 458.41020966 376.86398411 C458.42410686 380.83481938 458.41922962 384.8051914 458.39997042 388.77600022 C458.39622541 390.20526235 458.39908874 391.63456203 458.40958207 393.06379054 C458.52888658 410.57144879 453.27345618 424.08134983 441.299263 436.81390858 C431.00635737 446.73921044 418.08628085 452.24815169 403.78881931 452.26844215 C402.72784671 452.2719705 402.72784671 452.2719705 401.64544031 452.27557012 C399.26929532 452.28224053 396.89320525 452.28180249 394.5170517 452.2813921 C392.79854672 452.28469195 391.08004252 452.28841778 389.3615393 452.29253358 C384.63400562 452.30254803 379.90648463 452.30626949 375.17894185 452.30892289 C370.08191268 452.31282762 364.98489355 452.3224059 359.88787079 452.33113575 C347.57535759 452.35089615 335.26284358 452.36096618 322.95031849 452.36986354 C317.15077419 452.37424744 311.35123081 452.37961402 305.55168724 452.38485241 C286.26993658 452.40186484 266.98818649 452.41635847 247.70642948 452.42360115 C242.70295015 452.42551102 237.69947083 452.42743135 232.69599152 452.42938709 C231.4524144 452.42987083 230.20883727 452.43035457 228.927576 452.43085297 C208.78762689 452.43915122 188.64773722 452.46448464 168.50781406 452.49696777 C147.82610001 452.53005249 127.14441616 452.54805122 106.46267551 452.55124539 C94.85251393 452.55340926 83.24243901 452.56213983 71.63230324 452.58770657 C61.74333783 452.60943288 51.85448013 452.61745447 41.96549357 452.60773978 C36.92275167 452.60320062 31.88023191 452.60505908 26.8375206 452.62450123 C22.21388785 452.6421731 17.59063861 452.6411026 12.96700155 452.62560394 C11.30136316 452.62323396 9.63569794 452.62751949 7.97010047 452.63943259 C-10.47918382 452.76313224 -25.04779747 448.46104509 -38.7866745 435.54047108 C-47.95563522 426.03191922 -54.21530228 413.40917013 -54.24400139 400.06167603 C-54.24907593 398.80893991 -54.25415047 397.55620379 -54.25937879 396.26550597 C-54.25998045 394.87271992 -54.26047954 393.47993383 -54.26088715 392.08714771 C-54.26490264 390.60945658 -54.269341 389.13176654 -54.2741667 387.65407783 C-54.28612902 383.58750864 -54.29177989 379.52095132 -54.29634786 375.454368 C-54.30230547 371.07032613 -54.31391514 366.68629843 -54.32463837 362.30226612 C-54.34916212 351.70977894 -54.36379124 341.11728708 -54.37669843 330.52478024 C-54.38041095 327.53186551 -54.38438415 324.53895123 -54.3884511 321.54603696 C-54.4136926 302.95348399 -54.435742 284.36093028 -54.44817924 265.76836395 C-54.45110887 261.46152398 -54.45407054 257.15468404 -54.45708466 252.84784412 C-54.45783071 251.77741947 -54.45857676 250.70699481 -54.45934542 249.60413305 C-54.47198933 232.2777131 -54.50519907 214.95139601 -54.54688649 197.6250241 C-54.58935378 179.82825906 -54.61287998 162.03154659 -54.61809981 144.23473102 C-54.62150892 134.2458982 -54.63320471 124.25722597 -54.66620255 114.26844311 C-54.6942704 105.75809983 -54.705173 97.24795007 -54.69400708 88.73756411 C-54.68883725 84.39942751 -54.69159728 80.06169571 -54.71647263 75.72361851 C-54.73910918 71.74250718 -54.7381151 67.76208803 -54.71926875 63.7809634 C-54.7164887 62.35012953 -54.72195472 60.91924726 -54.73708169 59.48849066 C-54.902534 42.8025893 -49.86962563 28.08404408 -38.231987 15.82172108 C-27.62503769 5.8840439 -14.61000067 0.0207251 0 0 Z M-28.919487 33.44672108 C-45.69373942 56.33131602 -37.106987 95.95113541 -37.106987 118.13422108 C120.633013 118.13422108 278.373013 118.13422108 440.893013 118.13422108 C445.56537973 70.64177983 445.56537973 70.64177983 428.1352005 28.17718983 C420.44167739 21.16723759 412.00258302 17.88868957 401.5968132 17.87695217 C400.89304515 17.8734461 400.18927709 17.86994002 399.46418273 17.8663277 C397.11211237 17.85704318 394.76029122 17.86192933 392.40821075 17.86679554 C390.70233959 17.86305779 388.99647014 17.85845577 387.2906034 17.85306489 C382.60738437 17.84083488 377.92423678 17.84109537 373.24100542 17.84345365 C368.18837159 17.84386181 363.13576067 17.83282268 358.08313751 17.82333851 C348.18563769 17.80672749 338.2881617 17.80122891 328.39064911 17.80011375 C320.34504436 17.79916332 312.29944748 17.79505327 304.25384521 17.7887125 C281.4411838 17.77109977 258.6285412 17.76187367 235.81587294 17.76337345 C234.58610455 17.76345336 233.35633616 17.76353327 232.08930206 17.76361561 C230.24239618 17.76373825 230.24239618 17.76373825 228.35817906 17.76386337 C208.4038557 17.76467627 188.44960782 17.74553777 168.49530628 17.71733887 C148.00451131 17.6886104 127.51375316 17.67479856 107.02293754 17.67652643 C95.51965888 17.67719034 84.01645936 17.6716973 72.51319885 17.65017033 C62.71897817 17.63195904 52.92487249 17.62761081 43.13064221 17.64118917 C38.13484294 17.64771905 33.1392643 17.64783518 28.14348602 17.63048267 C23.56634201 17.61474798 18.9895935 17.61761971 14.41245911 17.63505094 C12.76039566 17.63811995 11.10830266 17.63449219 9.45627406 17.62333079 C-6.45462755 17.5229898 -18.40356684 20.80975544 -28.919487 33.44672108 Z M-37.106987 136.13422108 C-37.148237 178.80734608 -37.189487 221.48047108 -37.231987 265.44672108 C-37.25019501 278.92040516 -37.26840302 292.39408924 -37.28716278 306.27606678 C-37.29385169 318.35476347 -37.29385169 318.35476347 -37.29787445 330.43346119 C-37.29973757 335.81299578 -37.30706571 341.19249001 -37.31813812 346.57201099 C-37.33224829 353.43761314 -37.33596628 360.3031573 -37.33313155 367.16877306 C-37.33372418 369.68614153 -37.33768051 372.20351205 -37.34541726 374.72086871 C-37.35539952 378.1275897 -37.35295424 381.5340896 -37.34749603 384.94081593 C-37.35332136 385.92013679 -37.35914669 386.89945765 -37.36514854 387.9084549 C-37.30827881 401.16085517 -34.67208166 413.45755505 -25.481987 423.50922108 C-12.70352946 435.17017092 2.98029688 435.43865596 19.36493683 435.38818836 C21.00841313 435.39049662 22.65188839 435.39367558 24.29536152 435.39764285 C28.78293677 435.40594932 33.27042635 435.40188454 37.7580018 435.39567041 C42.60878724 435.39112987 47.45955833 435.39813761 52.31034088 435.40363026 C61.80176058 435.41250882 71.29314858 435.41060909 80.7845695 435.40480497 C88.5006211 435.40028244 96.21666383 435.39967814 103.93271637 435.40185261 C105.03221959 435.40215907 106.13172281 435.40246554 107.26454431 435.40278129 C109.49838313 435.40342076 111.73222194 435.40406919 113.96606076 435.40472648 C134.89731813 435.41042527 155.82855797 435.40387895 176.75981247 435.39312574 C194.70754174 435.38419065 212.65524514 435.38574281 230.60297394 435.39496326 C251.4609466 435.40567385 272.3189039 435.40987599 293.17687893 435.40373874 C295.40235583 435.40310166 297.62783273 435.40247292 299.85330963 435.40185261 C300.94819712 435.40154406 302.04308461 435.40123551 303.17115051 435.4009176 C310.87512349 435.39919303 318.5790867 435.40210064 326.28305817 435.40681171 C335.67562844 435.4124293 345.06816529 435.41088562 354.46073174 435.40025023 C359.25005065 435.39500535 364.0393139 435.39291657 368.82863235 435.39954853 C373.21802348 435.40553463 377.60730769 435.40218918 381.9966892 435.39159343 C383.57930502 435.38937065 385.16192998 435.39047028 386.74453986 435.395345 C402.41004935 435.439873 417.13550384 434.58071232 429.268013 423.50922108 C439.29228367 412.54517504 441.21858019 399.24030479 441.13352203 384.94081593 C441.13523407 383.87225361 441.13694611 382.80369129 441.13871002 381.7027483 C441.14199815 378.1411806 441.13100972 374.57980455 441.12006378 371.01825428 C441.11945063 368.41371479 441.11971891 365.80917496 441.1207943 363.20463562 C441.12185334 356.9522805 441.11266053 350.6999833 441.09979164 344.44764302 C441.08534043 337.208524 441.08379934 329.9694249 441.08222198 322.73029041 C441.07173928 303.63575818 441.04381687 284.54123875 441.018013 265.44672108 C440.976763 222.77359608 440.935513 180.10047108 440.893013 136.13422108 C283.153013 136.13422108 125.413013 136.13422108 -37.106987 136.13422108 Z " fill="#000000" transform="translate(54.10698699951172,29.865778923034668)"/>
<path d="M0 0 C2.5 1.3125 2.5 1.3125 4 4 C5.06748766 13.00900656 2.89198016 21.82783105 1.01831055 30.58154297 C0.69713942 32.12163976 0.37691448 33.66193412 0.05755615 35.20240784 C-0.80634682 39.35498333 -1.68403201 43.50453013 -2.56486535 47.653543 C-3.48722011 52.00726174 -4.39841782 56.36331715 -5.31132507 60.71902466 C-6.84449749 68.02528708 -8.38671579 75.32959565 -9.93432617 82.6328125 C-11.72229118 91.07084581 -13.49559593 99.51186012 -15.26120025 107.95459831 C-16.96332358 116.09200599 -18.67597496 124.22716363 -20.39336205 132.36136246 C-21.12284671 135.81745489 -21.84860163 139.27429931 -22.57134438 142.73180771 C-23.42220707 146.79992432 -24.28226346 150.8659906 -25.14942932 154.93066216 C-25.46586282 156.42111411 -25.77913665 157.91224095 -26.08899498 159.40407372 C-26.51285585 161.44213228 -26.94816801 163.47741756 -27.38642883 165.51242065 C-27.6270168 166.65129667 -27.86760477 167.79017269 -28.11548328 168.9635601 C-29.47322839 173.62453636 -30.94019324 176.29346216 -35 179 C-39.28482877 179.55544077 -41.29695542 179.46371025 -44.9375 177.0625 C-48.85121059 171.25123276 -47.01830348 164.54179615 -45.76737976 157.99775696 C-45.2008075 155.21538901 -44.61029941 152.43842993 -44.01831055 149.66137695 C-43.69730795 148.12316274 -43.37707741 146.58478725 -43.05755615 145.04626465 C-42.19183411 140.88976994 -41.31477478 136.735745 -40.43513465 132.58217645 C-39.51411955 128.22596311 -38.60210297 123.86786476 -37.68867493 119.51005554 C-36.15413298 112.19633182 -34.6120831 104.88422107 -33.06567383 97.57299805 C-31.2795324 89.12783391 -29.50590178 80.68011464 -27.73879975 72.23094779 C-26.03570039 64.08948487 -24.32321023 55.95002379 -22.60663795 47.81139183 C-21.87746884 44.35327 -21.15168486 40.89446349 -20.42865562 37.43505287 C-19.57685038 33.36142319 -18.71685449 29.28960676 -17.85057068 25.21903229 C-17.53448704 23.72731479 -17.22121588 22.23499809 -16.91100502 20.74204826 C-16.48622743 18.70007505 -16.05119243 16.66054547 -15.61357117 14.62129211 C-15.3729832 13.48074025 -15.13239523 12.34018839 -14.88451672 11.16507435 C-12.52705818 2.72935867 -9.19702211 -1.3878806 0 0 Z " fill="#000000" transform="translate(275,215)"/>
<path d="M0 0 C7.0174987 4.06012425 13.04773385 10.31494369 19.1328125 15.6328125 C22.58115831 18.64349023 26.06170102 21.61309708 29.5625 24.5625 C35.31527036 29.41515291 41.05158839 34.28604298 46.74609375 39.20703125 C48.75845219 40.94478968 50.78695294 42.64230041 52.84765625 44.32421875 C58.62902445 49.13439039 58.62902445 49.13439039 60.3125 53.0625 C59.58279964 59.92168336 56.00305058 63.19847155 50.875 67.375 C49.90304687 68.13554687 48.93109375 68.89609375 47.9296875 69.6796875 C45.1786711 71.85849249 42.58571405 74.1290737 40 76.5 C35.80539362 80.31926484 31.46907583 83.91064082 27.05859375 87.4765625 C24.1094966 89.90966181 21.21843797 92.39601351 18.33886719 94.91040039 C15.79680905 97.12980296 13.24199431 99.33423154 10.68603516 101.53759766 C9.22117823 102.80815847 7.7713077 104.09595766 6.32421875 105.38671875 C2.88022378 108.31917042 0.30364293 110.40004788 -4.3125 110.6875 C-8 110 -8 110 -10.4375 108.4375 C-12.51858903 105.19100111 -12.93249957 102.84752461 -13 99 C-10.79452963 94.17050284 -7.17295968 91.26847973 -3.1875 87.9375 C-2.19314941 87.09203613 -2.19314941 87.09203613 -1.17871094 86.22949219 C0.19906014 85.05835408 1.57913068 83.88991605 2.96142578 82.72412109 C4.88894907 81.09392115 6.80441215 79.4509556 8.71484375 77.80078125 C17.33599662 70.35577635 26.09843426 63.10855873 35 56 C33.42155072 51.69236099 30.11474529 49.2690224 26.6875 46.4375 C26.06230469 45.9115625 25.43710937 45.385625 24.79296875 44.84375 C23.49628648 43.75359576 22.19727202 42.6662098 20.89599609 41.58154297 C18.08440932 39.23626109 15.29281721 36.86756988 12.5 34.5 C11.43763222 33.6001043 10.37513082 32.70036632 9.3125 31.80078125 C8.77753906 31.34783691 8.24257813 30.89489258 7.69140625 30.42822266 C6.5134986 29.43359798 5.33366196 28.44125513 4.15234375 27.45068359 C2.26435036 25.86750228 0.38191104 24.27790322 -1.5 22.6875 C-2.07556641 22.20796875 -2.65113281 21.7284375 -3.24414062 21.234375 C-12.5741171 13.31869578 -12.5741171 13.31869578 -13.5625 7.9375 C-12.86562979 4.29828889 -11.60323039 2.60323039 -9 0 C-5.29328941 -1.2355702 -3.76780333 -1.06635943 0 0 Z " fill="#000000" transform="translate(314,249)"/>
<path d="M0 0 C2.78227332 2.49691195 3.80269892 4.19285922 4.6875 7.8125 C2.52242992 17.8505522 -10.48968849 25.65791668 -18 32 C-19.13569554 32.96451548 -20.2711266 33.9293425 -21.40625 34.89453125 C-25.81815644 38.63925196 -30.23731587 42.37348293 -34.69921875 46.05859375 C-35.30362793 46.56116699 -35.90803711 47.06374023 -36.53076172 47.58154297 C-37.69629537 48.55031895 -38.86575526 49.51439552 -40.03955078 50.47314453 C-41.39731788 51.6051086 -42.70424036 52.79755202 -44 54 C-44 54.66 -44 55.32 -44 56 C-42.53309441 57.3327188 -40.99677499 58.58913869 -39.4375 59.8125 C-34.76432461 63.55104031 -30.19790867 67.37926926 -25.6875 71.3125 C-24.4102361 72.42457088 -23.13289172 73.53654935 -21.85546875 74.6484375 C-21.21915527 75.20241211 -20.5828418 75.75638672 -19.92724609 76.32714844 C-16.79670597 79.04446044 -13.64916098 81.74181138 -10.5 84.4375 C-9.67375122 85.14483276 -9.67375122 85.14483276 -8.83081055 85.86645508 C-8.29883057 86.32173584 -7.76685059 86.7770166 -7.21875 87.24609375 C-6.69917725 87.6946875 -6.17960449 88.14328125 -5.64428711 88.60546875 C-4.47067455 89.60081766 -3.27919378 90.57525441 -2.07641602 91.53515625 C-1.44405029 92.04820312 -0.81168457 92.56125 -0.16015625 93.08984375 C0.41855225 93.54866943 0.99726074 94.00749512 1.59350586 94.48022461 C4.28158922 97.38481043 4.06220976 100.14299466 4 104 C2.91429716 107.43805898 2.10612788 107.92924808 -1 110 C-5.98421287 110.56977099 -7.97760452 110.6598089 -12.23828125 107.91015625 C-13.28038189 106.98003061 -14.30465442 106.02963739 -15.3125 105.0625 C-16.44574459 104.0394001 -17.57987205 103.01727735 -18.71484375 101.99609375 C-19.27026855 101.48546387 -19.82569336 100.97483398 -20.39794922 100.44873047 C-22.64922349 98.41290884 -25.00565192 96.52118468 -27.375 94.625 C-33.06870872 89.98904849 -38.60180496 85.17842852 -44.13671875 80.35546875 C-46.71045844 78.11428727 -49.29602965 75.8882048 -51.89453125 73.67578125 C-52.52125732 73.14186768 -53.1479834 72.6079541 -53.79370117 72.05786133 C-54.97600952 71.05208749 -56.15967111 70.04790124 -57.3449707 69.0456543 C-67.85744802 60.09361054 -67.85744802 60.09361054 -69 54 C-67.77696692 49.38305011 -65.05429178 46.79839835 -61.5625 43.75 C-61.02536377 43.26966309 -60.48822754 42.78932617 -59.93481445 42.29443359 C-55.71397749 38.5493324 -51.36179371 34.97453847 -46.96875 31.43359375 C-43.48666501 28.5792004 -40.08395565 25.64278985 -36.6875 22.6875 C-36.05602051 22.13916504 -35.42454102 21.59083008 -34.77392578 21.02587891 C-32.20941511 18.79748394 -29.64659581 16.56730257 -27.09277344 14.32666016 C-7.71688762 -2.67123033 -7.71688762 -2.67123033 0 0 Z " fill="#000000" transform="translate(207,249)"/>
<path d="M0 0 C7.20257822 5.28189069 11.98620504 10.66329355 13.70703125 19.546875 C14.70631883 27.91424303 12.67540373 35.02304444 8 42 C2.49978826 48.22047756 -4.43483839 51.33849729 -12.67578125 51.99609375 C-20.73237009 52.00963424 -27.69901365 49.14458684 -33.50390625 43.55078125 C-38.49246818 37.87722275 -40.66951344 32.2137037 -41.25 24.8125 C-40.64707025 15.61782127 -37.77780299 9.2698306 -31 3 C-22.00531922 -4.12078895 -10.20823864 -5.29705854 0 0 Z M-21 18 C-22.74327413 20.93187013 -23.0143242 22.64905716 -22.875 26.0625 C-21.85140734 29.49884678 -20.85642857 30.85767857 -18 33 C-14.53152906 34.36913327 -13.3033032 34.12488955 -9.8125 32.6875 C-6.52335903 30.71401542 -5.2591283 29.89698258 -4.1875 26.1875 C-3.9608751 22.3348767 -4.64468391 21.00505846 -7 18 C-9.19129659 15.88174663 -10.41881602 15.08941292 -13.4375 14.625 C-16.65687993 15.09612877 -18.43903021 15.99275341 -21 18 Z " fill="#000000" transform="translate(158,74)"/>
<path d="M0 0 C5.89965612 5.72977074 8.61680232 12.11422955 9.25 20.1875 C8.64664274 29.38869824 5.77338914 35.72080663 -1 42 C-7.21935351 47.02841348 -14.0702108 48.69559554 -22 48 C-30.57313111 45.93944042 -36.75196999 42.23377109 -42 35 C-45.86457896 27.68490411 -46.97070806 20.2797909 -44.84375 12.26171875 C-41.83636696 4.20026144 -36.66794441 -1.20436752 -29 -5 C-19.25609445 -8.97170063 -7.95787788 -6.71792947 0 0 Z M-24 13 C-26.29157345 15.45525727 -27.6933491 17.62684009 -28 21 C-27.00956803 24.3839759 -25.90156183 26.92745584 -23 29 C-19.25648961 30.16464768 -17.45885704 30.1676593 -13.75 28.8125 C-10.35474969 26.60593298 -10.35474969 26.60593298 -9 23 C-9.13863172 19.11831187 -9.42847506 16.77564099 -11.75 13.625 C-16.06852359 10.5060663 -19.3542426 10.43260775 -24 13 Z " fill="#000000" transform="translate(245,78)"/>
<path d="M0 0 C5.90831548 3.46102362 10.08442727 8.28850953 12.58984375 14.671875 C14.75880193 23.32219056 14.19761479 31.55975797 9.66015625 39.2734375 C5.48216412 45.35473716 0.24271791 49.01911842 -6.74609375 51.3203125 C-15.23434493 52.40933274 -22.78760793 51.77207611 -29.8671875 46.84375 C-35.75208859 42.11423316 -39.22155517 36.73126391 -40.74609375 29.3203125 C-41.70359449 20.37317442 -39.47742552 13.45632918 -34.55859375 6.0078125 C-24.9431122 -3.18031432 -12.20242659 -5.60175603 0 0 Z M-21.74609375 19.3203125 C-23.17271594 22.17355687 -23.05643243 24.15485799 -22.74609375 27.3203125 C-20.94615601 30.02021912 -19.66232075 31.862199 -16.74609375 33.3203125 C-12.45286516 33.80633838 -10.42526736 33.78272858 -6.80859375 31.3203125 C-4.51517213 27.98442651 -3.98793866 26.22047156 -4.265625 22.2578125 C-5.13506397 18.7517822 -6.82646202 17.30814687 -9.74609375 15.3203125 C-15.21349276 14.44162337 -17.86045173 15.43467048 -21.74609375 19.3203125 Z " fill="#000000" transform="translate(75.74609375,73.6796875)"/>
</svg>
